<mxfile host="app.diagrams.net" modified="2024-07-15T09:24:14.692Z" agent="Mozilla/5.0 (Windows NT 10.0; Win64; x64) AppleWebKit/537.36 (KHTML, like Gecko) Chrome/126.0.0.0 Safari/537.36" etag="w8E4XknyNo5BIJciPKzk" version="24.6.2" type="github">
  <diagram name="Page-1" id="e3a06f82-3646-2815-327d-82caf3d4e204">
    <mxGraphModel dx="2049" dy="1103" grid="1" gridSize="10" guides="1" tooltips="1" connect="1" arrows="1" fold="1" page="1" pageScale="1.5" pageWidth="1169" pageHeight="826" background="none" math="0" shadow="0">
      <root>
        <mxCell id="0" style=";html=1;" />
        <mxCell id="1" style=";html=1;" parent="0" />
        <mxCell id="6a7d8f32e03d9370-60" value="&lt;b&gt;&lt;font style=&quot;font-size: 22px;&quot;&gt;SafeGuarded Copy- SGC&lt;/font&gt;&lt;/b&gt;" style="whiteSpace=wrap;html=1;fontSize=14;verticalAlign=top;labelBackgroundColor=none;" parent="1" vertex="1">
          <mxGeometry x="960" y="80" width="650" height="720" as="geometry" />
        </mxCell>
        <mxCell id="6a7d8f32e03d9370-57" value="&lt;font style=&quot;font-size: 20px;&quot;&gt;VPN&lt;/font&gt;&lt;div style=&quot;font-size: 20px;&quot;&gt;&lt;font style=&quot;font-size: 20px;&quot;&gt;Client&lt;/font&gt;&lt;/div&gt;" style="whiteSpace=wrap;html=1;fontSize=14;verticalAlign=top;labelBackgroundColor=none;" parent="1" vertex="1">
          <mxGeometry x="260" y="75" width="300" height="725" as="geometry" />
        </mxCell>
        <mxCell id="6a7d8f32e03d9370-2" value="Client" style="verticalLabelPosition=bottom;aspect=fixed;html=1;verticalAlign=top;shape=mxgraph.citrix.laptop_2;fontSize=14;labelBackgroundColor=none;" parent="1" vertex="1">
          <mxGeometry x="329.9999999999999" y="296.75" width="116" height="86.5" as="geometry" />
        </mxCell>
        <mxCell id="6a7d8f32e03d9370-62" value="Network Architecture" style="text;html=1;fontSize=24;fontStyle=1;verticalAlign=middle;align=center;labelBackgroundColor=none;" parent="1" vertex="1">
          <mxGeometry x="319" y="35" width="861" height="40" as="geometry" />
        </mxCell>
        <mxCell id="0TkCK137ecwurnRGMuve-1" value="" style="ellipse;shape=cloud;whiteSpace=wrap;html=1;labelBackgroundColor=none;" vertex="1" parent="1">
          <mxGeometry x="550" y="121.5" width="410" height="160" as="geometry" />
        </mxCell>
        <mxCell id="0TkCK137ecwurnRGMuve-4" value="Internet" style="text;align=center;html=1;verticalAlign=middle;whiteSpace=wrap;rounded=0;fontSize=28;fontStyle=1;labelBackgroundColor=none;" vertex="1" parent="1">
          <mxGeometry x="650" y="110" width="200" height="110" as="geometry" />
        </mxCell>
        <mxCell id="0TkCK137ecwurnRGMuve-6" value="" style="verticalAlign=top;verticalLabelPosition=bottom;labelPosition=center;align=center;html=1;outlineConnect=0;gradientDirection=north;strokeWidth=2;shape=mxgraph.networks.load_balancer;labelBackgroundColor=none;" vertex="1" parent="1">
          <mxGeometry x="700" y="190" width="100" height="30" as="geometry" />
        </mxCell>
        <mxCell id="0TkCK137ecwurnRGMuve-8" value="DrayTek 2925" style="text;align=center;html=1;verticalAlign=middle;whiteSpace=wrap;rounded=0;fontStyle=1;fontSize=17;labelBackgroundColor=none;" vertex="1" parent="1">
          <mxGeometry x="710" y="220" width="120" height="50" as="geometry" />
        </mxCell>
        <mxCell id="0TkCK137ecwurnRGMuve-45" style="edgeStyle=orthogonalEdgeStyle;rounded=0;orthogonalLoop=1;jettySize=auto;html=1;fontColor=default;labelBackgroundColor=none;labelBorderColor=#f20707;" edge="1" parent="1" source="0TkCK137ecwurnRGMuve-10">
          <mxGeometry relative="1" as="geometry">
            <mxPoint x="1062.4285714285716" y="520" as="targetPoint" />
          </mxGeometry>
        </mxCell>
        <mxCell id="0TkCK137ecwurnRGMuve-53" value="" style="edgeStyle=orthogonalEdgeStyle;rounded=0;orthogonalLoop=1;jettySize=auto;html=1;strokeWidth=2;shape=link;opacity=80;labelBackgroundColor=none;fontColor=default;" edge="1" parent="1" source="0TkCK137ecwurnRGMuve-10" target="0TkCK137ecwurnRGMuve-17">
          <mxGeometry relative="1" as="geometry">
            <mxPoint x="1160" y="538.75" as="sourcePoint" />
            <mxPoint x="1230" y="641.25" as="targetPoint" />
            <Array as="points">
              <mxPoint x="1180" y="570" />
            </Array>
          </mxGeometry>
        </mxCell>
        <mxCell id="0TkCK137ecwurnRGMuve-10" value="" style="verticalAlign=top;verticalLabelPosition=bottom;labelPosition=center;align=center;html=1;outlineConnect=0;gradientDirection=north;strokeWidth=2;shape=mxgraph.networks.nas_filer;labelBackgroundColor=none;" vertex="1" parent="1">
          <mxGeometry x="1130" y="420" width="100" height="35" as="geometry" />
        </mxCell>
        <mxCell id="0TkCK137ecwurnRGMuve-46" style="edgeStyle=orthogonalEdgeStyle;rounded=0;orthogonalLoop=1;jettySize=auto;html=1;labelBackgroundColor=none;fontColor=default;" edge="1" parent="1" source="0TkCK137ecwurnRGMuve-12" target="0TkCK137ecwurnRGMuve-43">
          <mxGeometry relative="1" as="geometry" />
        </mxCell>
        <mxCell id="0TkCK137ecwurnRGMuve-12" value="" style="verticalAlign=top;verticalLabelPosition=bottom;labelPosition=center;align=center;html=1;outlineConnect=0;gradientDirection=north;strokeWidth=2;shape=mxgraph.networks.nas_filer;labelBackgroundColor=none;" vertex="1" parent="1">
          <mxGeometry x="1390" y="270" width="100" height="35" as="geometry" />
        </mxCell>
        <mxCell id="0TkCK137ecwurnRGMuve-14" value="" style="verticalAlign=top;verticalLabelPosition=bottom;labelPosition=center;align=center;html=1;outlineConnect=0;gradientDirection=north;strokeWidth=2;shape=mxgraph.networks.switch;labelBackgroundColor=none;" vertex="1" parent="1">
          <mxGeometry x="1130" y="270" width="100" height="30" as="geometry" />
        </mxCell>
        <mxCell id="0TkCK137ecwurnRGMuve-16" value="FS7300" style="text;align=center;html=1;verticalAlign=middle;whiteSpace=wrap;rounded=0;fontSize=19;labelBackgroundColor=none;" vertex="1" parent="1">
          <mxGeometry x="1330" y="550" width="120" height="40" as="geometry" />
        </mxCell>
        <mxCell id="0TkCK137ecwurnRGMuve-17" value="" style="image;aspect=fixed;perimeter=ellipsePerimeter;html=1;align=center;shadow=0;dashed=0;labelBackgroundColor=none;fontSize=12;spacingTop=3;image=img/lib/ibm/data/data_services.svg;" vertex="1" parent="1">
          <mxGeometry x="1270" y="540" width="60" height="60" as="geometry" />
        </mxCell>
        <mxCell id="0TkCK137ecwurnRGMuve-18" value="C9200 Switch&lt;div&gt;&lt;br&gt;&lt;/div&gt;" style="text;align=center;html=1;verticalAlign=middle;whiteSpace=wrap;rounded=0;fontSize=19;labelBackgroundColor=none;" vertex="1" parent="1">
          <mxGeometry x="1050" y="308.25" width="120" height="50" as="geometry" />
        </mxCell>
        <mxCell id="0TkCK137ecwurnRGMuve-19" value="&lt;div&gt;VMware ESXi&lt;/div&gt;" style="text;align=center;html=1;verticalAlign=middle;whiteSpace=wrap;rounded=0;fontSize=19;labelBackgroundColor=none;" vertex="1" parent="1">
          <mxGeometry x="1030" y="376.5" width="120" height="40" as="geometry" />
        </mxCell>
        <mxCell id="0TkCK137ecwurnRGMuve-21" value="&lt;div&gt;CSM&lt;/div&gt;" style="text;align=center;html=1;verticalAlign=middle;whiteSpace=wrap;rounded=0;fontSize=19;labelBackgroundColor=none;" vertex="1" parent="1">
          <mxGeometry x="1380" y="320" width="120" height="40" as="geometry" />
        </mxCell>
        <mxCell id="0TkCK137ecwurnRGMuve-22" value="" style="html=1;labelBackgroundColor=none;jettySize=auto;orthogonalLoop=1;strokeWidth=1;fontSize=14;endArrow=none;endFill=0;rounded=0;fontColor=default;" edge="1" parent="1" source="0TkCK137ecwurnRGMuve-10" target="0TkCK137ecwurnRGMuve-14">
          <mxGeometry width="60" height="60" relative="1" as="geometry">
            <mxPoint x="760" y="390" as="sourcePoint" />
            <mxPoint x="820" y="330" as="targetPoint" />
          </mxGeometry>
        </mxCell>
        <mxCell id="0TkCK137ecwurnRGMuve-23" value="" style="html=1;labelBackgroundColor=none;jettySize=auto;orthogonalLoop=1;strokeWidth=1;fontSize=14;endArrow=none;endFill=0;rounded=0;fontColor=default;" edge="1" parent="1" source="0TkCK137ecwurnRGMuve-12" target="0TkCK137ecwurnRGMuve-14">
          <mxGeometry width="60" height="60" relative="1" as="geometry">
            <mxPoint x="760" y="390" as="sourcePoint" />
            <mxPoint x="820" y="330" as="targetPoint" />
          </mxGeometry>
        </mxCell>
        <mxCell id="0TkCK137ecwurnRGMuve-35" value="" style="verticalAlign=top;verticalLabelPosition=bottom;labelPosition=center;align=center;html=1;outlineConnect=0;gradientDirection=north;strokeWidth=2;shape=mxgraph.networks.wireless_modem;labelBackgroundColor=none;" vertex="1" parent="1">
          <mxGeometry x="1130" y="133" width="100" height="87" as="geometry" />
        </mxCell>
        <mxCell id="0TkCK137ecwurnRGMuve-41" value="" style="html=1;labelBackgroundColor=none;endArrow=classic;endFill=1;endSize=6;jettySize=auto;orthogonalLoop=1;strokeWidth=1;fontSize=14;rounded=0;exitX=1;exitY=0.5;exitDx=0;exitDy=0;exitPerimeter=0;fontColor=default;" edge="1" parent="1" source="0TkCK137ecwurnRGMuve-6">
          <mxGeometry width="60" height="60" relative="1" as="geometry">
            <mxPoint x="760" y="400" as="sourcePoint" />
            <mxPoint x="1120" y="200" as="targetPoint" />
          </mxGeometry>
        </mxCell>
        <mxCell id="0TkCK137ecwurnRGMuve-43" value="" style="verticalAlign=top;verticalLabelPosition=bottom;labelPosition=center;align=center;html=1;outlineConnect=0;gradientDirection=north;strokeWidth=2;shape=mxgraph.networks.users;labelBackgroundColor=none;" vertex="1" parent="1">
          <mxGeometry x="1510" y="370" width="45" height="50" as="geometry" />
        </mxCell>
        <mxCell id="0TkCK137ecwurnRGMuve-47" value="" style="verticalAlign=top;verticalLabelPosition=bottom;labelPosition=center;align=center;html=1;outlineConnect=0;gradientDirection=north;strokeWidth=2;shape=mxgraph.networks.virtual_server;labelBackgroundColor=none;" vertex="1" parent="1">
          <mxGeometry x="1000" y="530" width="110" height="120" as="geometry" />
        </mxCell>
        <mxCell id="0TkCK137ecwurnRGMuve-48" value="VM" style="text;align=center;html=1;verticalAlign=middle;whiteSpace=wrap;rounded=0;fontStyle=1;fontSize=16;labelBackgroundColor=none;" vertex="1" parent="1">
          <mxGeometry x="1000" y="500" width="60" height="30" as="geometry" />
        </mxCell>
        <mxCell id="0TkCK137ecwurnRGMuve-54" value="Data Storage" style="text;align=center;html=1;verticalAlign=middle;whiteSpace=wrap;rounded=0;fontStyle=1;fontSize=15;labelBackgroundColor=none;" vertex="1" parent="1">
          <mxGeometry x="1340" y="510" width="110" height="30" as="geometry" />
        </mxCell>
        <mxCell id="0TkCK137ecwurnRGMuve-57" value="" style="html=1;labelBackgroundColor=none;jettySize=auto;orthogonalLoop=1;strokeWidth=1;fontSize=14;endArrow=none;endFill=0;rounded=0;fontColor=default;" edge="1" parent="1" source="0TkCK137ecwurnRGMuve-14" target="0TkCK137ecwurnRGMuve-17">
          <mxGeometry width="60" height="60" relative="1" as="geometry">
            <mxPoint x="1270" y="410" as="sourcePoint" />
            <mxPoint x="1330" y="350" as="targetPoint" />
            <Array as="points">
              <mxPoint x="1270" y="410" />
            </Array>
          </mxGeometry>
        </mxCell>
        <mxCell id="0TkCK137ecwurnRGMuve-58" value="&lt;div style=&quot;font-size: 13px;&quot;&gt;Use the following IP Addresses:-&lt;/div&gt;&lt;div style=&quot;font-size: 13px;&quot;&gt; Subnet &lt;span style=&quot;white-space: pre; font-size: 13px;&quot;&gt;&#x9;&#x9;&lt;/span&gt;: 255.255.255.0&lt;/div&gt;&lt;div style=&quot;font-size: 13px;&quot;&gt;ESXi server&lt;span style=&quot;white-space: pre; font-size: 13px;&quot;&gt;&#x9;&#x9;&lt;/span&gt;: 191.128.1.10&lt;/div&gt;&lt;div style=&quot;font-size: 13px;&quot;&gt;Win2022-VM1&lt;span style=&quot;white-space: pre; font-size: 13px;&quot;&gt;&#x9;&lt;/span&gt;&amp;nbsp; &amp;nbsp; &amp;nbsp; &amp;nbsp; : 191.128.1.20&lt;/div&gt;&lt;div style=&quot;font-size: 13px;&quot;&gt;FS-Storage&lt;span style=&quot;white-space: pre; font-size: 13px;&quot;&gt;&#x9;&#x9;&lt;/span&gt;: 191.128.1.60 Cluster&lt;/div&gt;&lt;div style=&quot;font-size: 13px;&quot;&gt;&lt;span style=&quot;white-space: normal; font-size: 13px;&quot;&gt;&lt;span style=&quot;white-space: pre; font-size: 13px;&quot;&gt;&#x9;&#x9;&lt;/span&gt;&amp;nbsp; &amp;nbsp; &amp;nbsp; &amp;nbsp; &amp;nbsp; &amp;nbsp; &amp;nbsp; &amp;nbsp; : 191.128.1.58 Node1&lt;/span&gt;&lt;/div&gt;&lt;div style=&quot;font-size: 13px;&quot;&gt;&lt;span style=&quot;white-space: normal; font-size: 13px;&quot;&gt;&lt;span style=&quot;white-space: pre; font-size: 13px;&quot;&gt;&#x9;&#x9;&lt;/span&gt;&amp;nbsp; &amp;nbsp; &amp;nbsp; &amp;nbsp; &amp;nbsp; &amp;nbsp; &amp;nbsp; &amp;nbsp; : 191.128.1.59 Node2&lt;/span&gt;&lt;/div&gt;" style="text;align=left;html=1;verticalAlign=middle;whiteSpace=wrap;rounded=0;fontSize=13;fontStyle=1;labelBackgroundColor=none;" vertex="1" parent="1">
          <mxGeometry x="970" y="670" width="250" height="90" as="geometry" />
        </mxCell>
        <mxCell id="0TkCK137ecwurnRGMuve-59" value="" style="html=1;labelBackgroundColor=none;jettySize=auto;orthogonalLoop=1;strokeWidth=1;fontSize=14;endArrow=none;endFill=0;rounded=0;fontColor=default;" edge="1" parent="1" source="0TkCK137ecwurnRGMuve-14" target="0TkCK137ecwurnRGMuve-35">
          <mxGeometry width="60" height="60" relative="1" as="geometry">
            <mxPoint x="1100" y="275" as="sourcePoint" />
            <mxPoint x="1160" y="215" as="targetPoint" />
          </mxGeometry>
        </mxCell>
        <mxCell id="0TkCK137ecwurnRGMuve-61" value="" style="html=1;labelBackgroundColor=none;endArrow=classic;endFill=1;endSize=6;jettySize=auto;orthogonalLoop=1;strokeWidth=1;fontSize=14;rounded=0;exitX=0.945;exitY=0.713;exitDx=0;exitDy=0;exitPerimeter=0;entryX=0.25;entryY=1;entryDx=0;entryDy=0;fontColor=default;dashed=1;dashPattern=12 12;" edge="1" parent="1" source="6a7d8f32e03d9370-2" target="0TkCK137ecwurnRGMuve-4">
          <mxGeometry width="60" height="60" relative="1" as="geometry">
            <mxPoint x="830" y="450" as="sourcePoint" />
            <mxPoint x="890" y="390" as="targetPoint" />
          </mxGeometry>
        </mxCell>
        <mxCell id="0TkCK137ecwurnRGMuve-62" value="&lt;span style=&quot;color: rgb(8, 28, 54); font-family: SegoeuiPc, &amp;quot;Segoe UI&amp;quot;, &amp;quot;San Francisco&amp;quot;, &amp;quot;Helvetica Neue&amp;quot;, Helvetica, &amp;quot;Lucida Grande&amp;quot;, Roboto, Ubuntu, Tahoma, &amp;quot;Microsoft Sans Serif&amp;quot;, Arial, sans-serif; font-size: 15px; letter-spacing: 0.2px; white-space-collapse: preserve; background-color: rgb(255, 255, 255);&quot;&gt;Username/password management:-&lt;br&gt;User name: default by platform/HW&lt;/span&gt;&lt;div&gt;&lt;span style=&quot;color: rgb(8, 28, 54); font-family: SegoeuiPc, &amp;quot;Segoe UI&amp;quot;, &amp;quot;San Francisco&amp;quot;, &amp;quot;Helvetica Neue&amp;quot;, Helvetica, &amp;quot;Lucida Grande&amp;quot;, Roboto, Ubuntu, Tahoma, &amp;quot;Microsoft Sans Serif&amp;quot;, Arial, sans-serif; font-size: 15px; letter-spacing: 0.2px; white-space-collapse: preserve; background-color: rgb(255, 255, 255);&quot;&gt;Password&#x9;&#x9;: sgcadmin3579&lt;/span&gt;&lt;/div&gt;" style="text;align=left;html=1;verticalAlign=middle;whiteSpace=wrap;rounded=0;fontStyle=1" vertex="1" parent="1">
          <mxGeometry x="270" y="440" width="310" height="30" as="geometry" />
        </mxCell>
      </root>
    </mxGraphModel>
  </diagram>
</mxfile>
